<svg width="120" height="120" viewBox="0 0 120 120" fill="none" xmlns="http://www.w3.org/2000/svg">
<path d="M15.8404 95.9999H42.2404L39.8404 105.6H29.2804C26.4004 105.6 24.4804 107.52 24.4804 110.4C24.4804 112.8 26.4004 115.2 29.2804 115.2H90.7204C93.6004 115.2 95.5204 112.8 95.5204 110.4C95.5204 107.52 93.6004 105.6 90.7204 105.6H80.6404L78.2404 95.9999H104.64C111.84 95.9999 118.08 89.7599 118.08 82.5599V18.7199C118.08 11.5199 111.84 5.27989 104.64 5.27989H15.8404C8.64039 4.79989 2.40039 11.0399 2.40039 18.2399V82.0799C2.40039 89.7599 8.16039 95.9999 15.8404 95.9999ZM12.0004 18.2399C12.0004 16.3199 13.9204 14.3999 15.8404 14.3999H104.16C106.08 14.3999 108 16.3199 108 18.2399V67.1999H12.0004V18.2399Z" fill="white"/>
<path d="M75.7923 31.3125H74.3131V26.875C74.3131 26.4827 74.1573 26.1065 73.8799 25.8291C73.6025 25.5517 73.2263 25.3958 72.834 25.3958C72.4417 25.3958 72.0655 25.5517 71.7881 25.8291C71.5107 26.1065 71.3548 26.4827 71.3548 26.875V31.3125H68.3965V23.9167C68.3965 23.5244 68.2406 23.1481 67.9632 22.8707C67.6859 22.5933 67.3096 22.4375 66.9173 22.4375C66.525 22.4375 66.1488 22.5933 65.8714 22.8707C65.594 23.1481 65.4382 23.5244 65.4382 23.9167V31.3125H62.4798V26.875C62.4798 26.4827 62.324 26.1065 62.0466 25.8291C61.7692 25.5517 61.393 25.3958 61.0007 25.3958C60.6084 25.3958 60.2321 25.5517 59.9547 25.8291C59.6773 26.1065 59.5215 26.4827 59.5215 26.875V31.3125H56.5632V23.9167C56.5632 23.5244 56.4073 23.1481 56.1299 22.8707C55.8525 22.5933 55.4763 22.4375 55.084 22.4375C54.6917 22.4375 54.3155 22.5933 54.0381 22.8707C53.7607 23.1481 53.6048 23.5244 53.6048 23.9167V32.7917C53.6048 33.184 53.7607 33.5602 54.0381 33.8376C54.3155 34.115 54.6917 34.2708 55.084 34.2708H75.7923C76.1846 34.2708 76.5608 34.4267 76.8382 34.7041C77.1156 34.9815 77.2715 35.3577 77.2715 35.75V47.5833C77.2715 47.9756 77.1156 48.3519 76.8382 48.6293C76.5608 48.9067 76.1846 49.0625 75.7923 49.0625H46.209C45.8167 49.0625 45.4405 48.9067 45.1631 48.6293C44.8857 48.3519 44.7298 47.9756 44.7298 47.5833V35.75C44.7298 35.3577 44.8857 34.9815 45.1631 34.7041C45.4405 34.4267 45.8167 34.2708 46.209 34.2708H49.1673C49.5596 34.2708 49.9358 34.115 50.2132 33.8376C50.4906 33.5602 50.6465 33.184 50.6465 32.7917V26.875C50.6465 26.4827 50.4906 26.1065 50.2132 25.8291C49.9358 25.5517 49.5596 25.3958 49.1673 25.3958C48.775 25.3958 48.3988 25.5517 48.1214 25.8291C47.844 26.1065 47.6882 26.4827 47.6882 26.875V31.3125H46.209C45.0324 31.3137 43.9044 31.7816 43.0725 32.6135C42.2406 33.4454 41.7727 34.5735 41.7715 35.75V47.5833C41.7715 48.7602 42.239 49.8889 43.0712 50.7211C43.9034 51.5533 45.0321 52.0208 46.209 52.0208H47.6882V56.4583C47.6882 56.8506 47.844 57.2269 48.1214 57.5043C48.3988 57.7817 48.775 57.9375 49.1673 57.9375C49.5596 57.9375 49.9358 57.7817 50.2132 57.5043C50.4906 57.2269 50.6465 56.8506 50.6465 56.4583V52.0208H53.6048V59.4167C53.6048 59.809 53.7607 60.1852 54.0381 60.4626C54.3155 60.74 54.6917 60.8958 55.084 60.8958C55.4763 60.8958 55.8525 60.74 56.1299 60.4626C56.4073 60.1852 56.5632 59.809 56.5632 59.4167V52.0208H59.5215V56.4583C59.5215 56.8506 59.6773 57.2269 59.9547 57.5043C60.2321 57.7817 60.6084 57.9375 61.0007 57.9375C61.393 57.9375 61.7692 57.7817 62.0466 57.5043C62.324 57.2269 62.4798 56.8506 62.4798 56.4583V52.0208H65.4382V59.4167C65.4382 59.809 65.594 60.1852 65.8714 60.4626C66.1488 60.74 66.525 60.8958 66.9173 60.8958C67.3096 60.8958 67.6859 60.74 67.9632 60.4626C68.2406 60.1852 68.3965 59.809 68.3965 59.4167V52.0208H71.3548V56.4583C71.3548 56.8506 71.5107 57.2269 71.7881 57.5043C72.0655 57.7817 72.4417 57.9375 72.834 57.9375C73.2263 57.9375 73.6025 57.7817 73.8799 57.5043C74.1573 57.2269 74.3131 56.8506 74.3131 56.4583V52.0208H75.7923C76.9692 52.0208 78.0979 51.5533 78.9301 50.7211C79.7623 49.8889 80.2298 48.7602 80.2298 47.5833V35.75C80.2286 34.5735 79.7607 33.4454 78.9288 32.6135C78.0969 31.7816 76.9689 31.3137 75.7923 31.3125Z" fill="white"/>
<path d="M47.6875 38.7084V44.6251C47.6875 45.0174 47.8433 45.3936 48.1207 45.671C48.3981 45.9484 48.7744 46.1042 49.1667 46.1042H72.8333C73.2256 46.1042 73.6019 45.9484 73.8793 45.671C74.1567 45.3936 74.3125 45.0174 74.3125 44.6251V38.7084C74.3125 38.3161 74.1567 37.9399 73.8793 37.6625C73.6019 37.3851 73.2256 37.2292 72.8333 37.2292H49.1667C48.7744 37.2292 48.3981 37.3851 48.1207 37.6625C47.8433 37.9399 47.6875 38.3161 47.6875 38.7084ZM50.6458 40.1876H71.3542V43.1459H50.6458V40.1876Z" fill="white"/>
</svg>
