<svg width="120" height="120" viewBox="0 0 120 120" fill="none" xmlns="http://www.w3.org/2000/svg">
<path d="M106.407 78.6915C104.867 78.6945 103.371 79.1995 102.144 80.1301C100.917 81.0606 100.028 82.3659 99.6101 83.8478H92.8719V76.779C96.4072 75.4215 99.4478 73.0241 101.593 69.903C103.737 66.7819 104.886 63.084 104.886 59.297C104.886 55.51 103.737 51.812 101.593 48.691C99.4478 45.5699 96.4072 43.1725 92.8719 41.815V38.7306H99.6101C100.077 40.377 101.123 41.799 102.556 42.7342C103.989 43.6695 105.712 44.0549 107.407 43.8193C109.102 43.5837 110.655 42.743 111.778 41.4524C112.902 40.1617 113.521 38.5082 113.521 36.797C113.521 35.0857 112.902 33.4322 111.778 32.1416C110.655 30.8509 109.102 30.0103 107.407 29.7747C105.712 29.5391 103.989 29.9245 102.556 30.8597C101.123 31.795 100.077 33.217 99.6101 34.8634H90.9383C90.4256 34.864 89.9342 35.0679 89.5717 35.4304C89.2092 35.7929 89.0053 36.2844 89.0047 36.797V40.7814C86.4271 40.3532 83.7869 40.4956 81.2703 41.1985C80.893 40.4064 80.4336 39.6634 79.9812 38.9157V22.5095L88.3039 18.347C89.4697 19.6185 91.0563 20.425 92.7705 20.6176C94.4848 20.8101 96.2108 20.3757 97.6296 19.3945C99.0484 18.4134 100.064 16.9518 100.489 15.28C100.914 13.6081 100.719 11.8389 99.9412 10.2994C99.1631 8.75984 97.854 7.55399 96.2559 6.90465C94.6577 6.25532 92.8786 6.2064 91.2471 6.76694C89.6157 7.32747 88.2423 8.45957 87.3808 9.95403C86.5192 11.4485 86.2277 13.2043 86.5601 14.897L77.1851 19.5845C76.8615 19.7461 76.5897 19.9951 76.4004 20.3033C76.211 20.6115 76.1119 20.9665 76.114 21.3282V34.029C72.2774 30.1704 67.3102 27.6359 61.9344 26.7939V20.3907C63.5807 19.924 65.0028 18.8776 65.938 17.4446C66.8733 16.0115 67.2587 14.2885 67.0231 12.5936C66.7875 10.8986 65.9468 9.34606 64.6562 8.22241C63.3655 7.09875 61.712 6.47982 60.0008 6.47982C58.2895 6.47982 56.636 7.09875 55.3454 8.22241C54.0547 9.34606 53.214 10.8986 52.9784 12.5936C52.7428 14.2885 53.1282 16.0115 54.0635 17.4446C54.9988 18.8776 56.4208 19.924 58.0672 20.3907V26.4845H58.0086C52.9875 26.4794 48.0762 27.9532 43.8875 30.722V21.3282C43.8873 20.9692 43.7872 20.6172 43.5985 20.3118C43.4097 20.0063 43.1398 19.7594 42.8187 19.5985L33.4437 14.911C33.5298 14.4772 33.5746 14.0362 33.5773 13.5939C33.5916 11.9227 33.0203 10.2994 31.9625 9.0055C30.9048 7.71164 29.4274 6.82897 27.7868 6.51068C26.1462 6.19239 24.446 6.45857 22.9811 7.26304C21.5163 8.0675 20.3794 9.35946 19.7677 10.9147C19.156 12.4699 19.1082 14.1902 19.6325 15.777C20.1568 17.3638 21.2201 18.717 22.638 19.6016C24.0558 20.4863 25.7387 20.8465 27.3944 20.6199C29.0502 20.3933 30.5743 19.5941 31.7023 18.361L40.0203 22.5235V33.8532C36.9344 36.8686 34.6546 40.6103 33.3898 44.7353C37.8969 45.5588 41.9729 47.9353 44.9098 51.4519C47.8466 54.9685 49.4586 59.4029 49.4656 63.9845C49.4447 64.7025 49.1447 65.3841 48.6295 65.8846C48.1142 66.385 47.4242 66.665 46.7058 66.665C45.9875 66.665 45.2975 66.385 44.7822 65.8846C44.2669 65.3841 43.967 64.7025 43.9461 63.9845C43.9425 60.4399 42.6004 57.0275 40.1886 54.43C37.7767 51.8326 34.4728 50.2417 30.9383 49.9759C30.9661 49.8817 30.9857 49.7852 30.9969 49.6876V36.797C30.9962 36.2844 30.7923 35.7929 30.4298 35.4304C30.0674 35.0679 29.5759 34.864 29.0633 34.8634H20.3914C19.9247 33.217 18.8783 31.795 17.4452 30.8597C16.0121 29.9245 14.2892 29.5391 12.5942 29.7747C10.8993 30.0103 9.34672 30.8509 8.22306 32.1416C7.0994 33.4322 6.48047 35.0857 6.48047 36.797C6.48047 38.5082 7.0994 40.1617 8.22306 41.4524C9.34672 42.743 10.8993 43.5837 12.5942 43.8193C14.2892 44.0549 16.0121 43.6695 17.4452 42.7342C18.8783 41.799 19.9247 40.377 20.3914 38.7306H27.139V49.6876C27.1498 49.8553 27.183 50.0208 27.2375 50.1798C24.0356 50.7999 21.1489 52.5136 19.0713 55.0275C16.9937 57.5415 15.8545 60.6994 15.8487 63.9607C15.8429 67.222 16.9708 70.384 19.0394 72.9053C21.108 75.4267 23.9887 77.1507 27.1883 77.7821C27.1631 77.8688 27.1451 77.9574 27.1344 78.047V86.4259H20.3914C19.9247 84.7795 18.8783 83.3575 17.4452 82.4222C16.0121 81.487 14.2892 81.1016 12.5942 81.3372C10.8993 81.5728 9.34672 82.4134 8.22306 83.7041C7.0994 84.9947 6.48047 86.6482 6.48047 88.3595C6.48047 90.0707 7.0994 91.7242 8.22306 93.0149C9.34672 94.3055 10.8993 95.1462 12.5942 95.3818C14.2892 95.6174 16.0121 95.232 17.4452 94.2968C18.8783 93.3615 19.9247 91.9395 20.3914 90.2931H29.0633C29.5759 90.2925 30.0674 90.0885 30.4298 89.7261C30.7923 89.3636 30.9962 88.8721 30.9969 88.3595V78.047H40.0203V97.4767L31.6976 101.639C30.5319 100.368 28.9453 99.5611 27.231 99.3686C25.5168 99.176 23.7908 99.6105 22.372 100.592C20.9531 101.573 19.9374 103.034 19.5125 104.706C19.0876 106.378 19.2821 108.147 20.0603 109.687C20.8384 111.226 22.1475 112.432 23.7457 113.082C25.3438 113.731 27.123 113.78 28.7544 113.219C30.3858 112.659 31.7592 111.527 32.6207 110.032C33.4823 108.538 33.7738 106.782 33.4414 105.089L42.8164 100.402C43.1374 100.241 43.4074 99.9939 43.5961 99.6884C43.7849 99.383 43.8849 99.0311 43.8851 98.672V78.047H58.0648V99.6095C56.4184 100.076 54.9964 101.123 54.0612 102.556C53.1259 103.989 52.7405 105.712 52.9761 107.407C53.2117 109.102 54.0524 110.654 55.343 111.778C56.6337 112.901 58.2872 113.52 59.9984 113.52C61.7097 113.52 63.3632 112.901 64.6538 111.778C65.9445 110.654 66.7852 109.102 67.0208 107.407C67.2563 105.712 66.871 103.989 65.9357 102.556C65.0004 101.123 63.5784 100.076 61.932 99.6095V78.047H76.1117V98.672C76.1119 99.0311 76.212 99.383 76.4007 99.6884C76.5895 99.9939 76.8594 100.241 77.1805 100.402L86.5555 105.089C86.4694 105.523 86.4246 105.964 86.4219 106.406C86.4076 108.077 86.9789 109.701 88.0367 110.995C89.0944 112.289 90.5718 113.171 92.2124 113.49C93.853 113.808 95.5532 113.542 97.018 112.737C98.4829 111.933 99.6198 110.641 100.231 109.086C100.843 107.53 100.891 105.81 100.367 104.223C99.8424 102.636 98.7791 101.283 97.3612 100.399C95.9434 99.514 94.2605 99.1537 92.6048 99.3803C90.949 99.6069 89.4249 100.406 88.2969 101.639L79.9812 97.4767V78.047H86.1336C87.0952 78.0417 88.055 77.9633 89.0047 77.8126V85.7814C89.0053 86.294 89.2092 86.7855 89.5717 87.1479C89.9342 87.5104 90.4256 87.7143 90.9383 87.715H99.6101C99.9723 88.9799 100.68 90.1188 101.654 91.0037C102.628 91.8887 103.829 92.4846 105.122 92.7245C106.416 92.9644 107.751 92.8388 108.977 92.3619C110.204 91.8849 111.273 91.0755 112.064 90.0245C112.856 88.9735 113.339 87.7226 113.459 86.4123C113.579 85.102 113.331 83.7842 112.743 82.607C112.156 81.4297 111.251 80.4397 110.132 79.748C109.013 79.0563 107.723 78.6905 106.407 78.6915ZM106.407 33.5743C107.044 33.5743 107.667 33.7633 108.197 34.1174C108.727 34.4716 109.14 34.9749 109.384 35.5637C109.628 36.1526 109.692 36.8006 109.568 37.4257C109.443 38.0508 109.136 38.625 108.686 39.0757C108.235 39.5264 107.661 39.8334 107.036 39.9577C106.411 40.0821 105.763 40.0182 105.174 39.7743C104.585 39.5304 104.082 39.1174 103.727 38.5874C103.373 38.0574 103.184 37.4344 103.184 36.797C103.186 35.9427 103.526 35.1237 104.13 34.5196C104.734 33.9155 105.553 33.5756 106.407 33.5743ZM93.5164 10.3712C94.1538 10.3712 94.7768 10.5602 95.3068 10.9143C95.8368 11.2684 96.2498 11.7717 96.4937 12.3606C96.7377 12.9495 96.8015 13.5974 96.6771 14.2226C96.5528 14.8477 96.2458 15.4219 95.7952 15.8726C95.3445 16.3233 94.7702 16.6302 94.1451 16.7546C93.52 16.8789 92.872 16.8151 92.2831 16.5712C91.6943 16.3273 91.191 15.9142 90.8369 15.3843C90.4827 14.8543 90.2937 14.2312 90.2937 13.5939C90.295 12.7395 90.6349 11.9206 91.239 11.3165C91.8431 10.7124 92.6621 10.3724 93.5164 10.3712ZM26.4851 16.8165C25.8478 16.8165 25.2247 16.6275 24.6947 16.2734C24.1648 15.9193 23.7517 15.416 23.5078 14.8271C23.2639 14.2383 23.2001 13.5903 23.3244 12.9652C23.4488 12.34 23.7557 11.7658 24.2064 11.3151C24.6571 10.8644 25.2313 10.5575 25.8564 10.4331C26.4816 10.3088 27.1295 10.3726 27.7184 10.6165C28.3073 10.8604 28.8106 11.2735 29.1647 11.8034C29.5188 12.3334 29.7078 12.9565 29.7078 13.5939C29.7066 14.4482 29.3666 15.2672 28.7625 15.8713C28.1584 16.4754 27.3395 16.8153 26.4851 16.8165ZM13.5945 40.0196C12.9571 40.0196 12.3341 39.8306 11.8041 39.4765C11.2741 39.1224 10.8611 38.6191 10.6172 38.0302C10.3733 37.4414 10.3094 36.7934 10.4338 36.1683C10.5581 35.5431 10.8651 34.9689 11.3158 34.5182C11.7664 34.0675 12.3407 33.7606 12.9658 33.6363C13.5909 33.5119 14.2389 33.5757 14.8278 33.8196C15.4166 34.0636 15.9199 34.4766 16.2741 35.0066C16.6282 35.5365 16.8172 36.1596 16.8172 36.797C16.8159 37.6513 16.476 38.4703 15.8719 39.0744C15.2678 39.6785 14.4488 40.0184 13.5945 40.0196ZM13.5945 91.5821C12.9571 91.5821 12.3341 91.3931 11.8041 91.039C11.2741 90.6849 10.8611 90.1816 10.6172 89.5928C10.3733 89.0039 10.3094 88.3559 10.4338 87.7308C10.5581 87.1056 10.8651 86.5314 11.3158 86.0807C11.7664 85.63 12.3407 85.3231 12.9658 85.1988C13.5909 85.0744 14.2389 85.1382 14.8278 85.3821C15.4166 85.6261 15.9199 86.0391 16.2741 86.5691C16.6282 87.099 16.8172 87.7221 16.8172 88.3595C16.8159 89.2138 16.476 90.0328 15.8719 90.6369C15.2678 91.241 14.4488 91.5809 13.5945 91.5821ZM26.4851 109.629C25.8478 109.629 25.2247 109.44 24.6947 109.086C24.1648 108.732 23.7517 108.228 23.5078 107.64C23.2639 107.051 23.2001 106.403 23.3244 105.778C23.4488 105.153 23.7557 104.578 24.2064 104.128C24.6571 103.677 25.2313 103.37 25.8564 103.246C26.4816 103.121 27.1295 103.185 27.7184 103.429C28.3073 103.673 28.8106 104.086 29.1647 104.616C29.5188 105.146 29.7078 105.769 29.7078 106.406C29.7066 107.261 29.3666 108.08 28.7625 108.684C28.1584 109.288 27.3395 109.628 26.4851 109.629ZM63.2234 106.406C63.2234 107.044 63.0344 107.667 62.6803 108.197C62.3262 108.727 61.8229 109.14 61.234 109.384C60.6452 109.628 59.9972 109.691 59.3721 109.567C58.7469 109.443 58.1727 109.136 57.722 108.685C57.2713 108.234 56.9644 107.66 56.84 107.035C56.7157 106.41 56.7795 105.762 57.0234 105.173C57.2673 104.584 57.6804 104.081 58.2104 103.727C58.7403 103.373 59.3634 103.184 60.0008 103.184C60.8551 103.185 61.6741 103.525 62.2782 104.129C62.8823 104.733 63.2222 105.552 63.2234 106.406ZM60.0008 16.8165C59.3634 16.8165 58.7403 16.6275 58.2104 16.2734C57.6804 15.9193 57.2673 15.416 57.0234 14.8271C56.7795 14.2383 56.7157 13.5903 56.84 12.9652C56.9644 12.34 57.2713 11.7658 57.722 11.3151C58.1727 10.8644 58.7469 10.5575 59.3721 10.4331C59.9972 10.3088 60.6452 10.3726 61.234 10.6165C61.8229 10.8604 62.3262 11.2735 62.6803 11.8034C63.0344 12.3334 63.2234 12.9565 63.2234 13.5939C63.2222 14.4482 62.8823 15.2672 62.2782 15.8713C61.6741 16.4754 60.8551 16.8153 60.0008 16.8165ZM93.5164 103.184C94.1538 103.184 94.7768 103.373 95.3068 103.727C95.8368 104.081 96.2498 104.584 96.4937 105.173C96.7377 105.762 96.8015 106.41 96.6771 107.035C96.5528 107.66 96.2458 108.234 95.7952 108.685C95.3445 109.136 94.7702 109.443 94.1451 109.567C93.52 109.691 92.872 109.628 92.2831 109.384C91.6943 109.14 91.191 108.727 90.8369 108.197C90.4827 107.667 90.2937 107.044 90.2937 106.406C90.295 105.552 90.6349 104.733 91.239 104.129C91.8431 103.525 92.6621 103.185 93.5164 103.184ZM106.407 89.004C105.77 89.004 105.147 88.815 104.617 88.4609C104.087 88.1068 103.674 87.6035 103.43 87.0146C103.186 86.4258 103.122 85.7778 103.246 85.1527C103.371 84.5275 103.678 83.9533 104.128 83.5026C104.579 83.0519 105.153 82.745 105.778 82.6206C106.403 82.4963 107.051 82.5601 107.64 82.804C108.229 83.0479 108.732 83.461 109.087 83.991C109.441 84.5209 109.63 85.144 109.63 85.7814C109.628 86.6357 109.289 87.4547 108.684 88.0588C108.08 88.6629 107.261 89.0028 106.407 89.004Z" fill="white"/>
</svg>
