<svg width="120" height="120" viewBox="0 0 120 120" fill="none" xmlns="http://www.w3.org/2000/svg">
<g clip-path="url(#clip0_345_5423)">
<path fill-rule="evenodd" clip-rule="evenodd" d="M67.0589 56.4705H102.353C104.302 56.4705 105.882 58.0507 105.882 60V93.5294H63.5294V60C63.5294 58.0507 65.1096 56.4705 67.0589 56.4705ZM79.4119 74.1176H90C90.468 74.1175 90.9168 73.9316 91.2477 73.6007C91.5786 73.2698 91.7645 72.821 91.7646 72.353V68.8235C91.7645 68.3555 91.5786 67.9067 91.2477 67.5758C90.9168 67.2449 90.468 67.059 90 67.0589H79.4119C78.9439 67.059 78.4951 67.2449 78.1642 67.5758C77.8333 67.9067 77.6473 68.3555 77.6473 68.8235V72.353C77.6472 72.5847 77.6929 72.8142 77.7815 73.0283C77.8702 73.2424 78.0002 73.4369 78.164 73.6008C78.3279 73.7647 78.5224 73.8947 78.7366 73.9833C78.9507 74.072 79.1801 74.1176 79.4119 74.1176ZM17.647 45.8824H52.9411C54.8904 45.8824 56.4705 47.4626 56.4705 49.4119V93.5294H14.1176V49.4119C14.1176 47.4626 15.6977 45.8824 17.647 45.8824ZM30 63.5294H40.5881C41.0561 63.5294 41.5049 63.3435 41.8358 63.0125C42.1667 62.6816 42.3527 62.2328 42.3527 61.7648V58.2354C42.3527 57.7674 42.1667 57.3186 41.8358 56.9877C41.5049 56.6568 41.0561 56.4708 40.5881 56.4708H30C29.532 56.4708 29.0832 56.6568 28.7523 56.9877C28.4214 57.3186 28.2355 57.7674 28.2354 58.2354V61.7648C28.2355 62.2328 28.4214 62.6816 28.7523 63.0125C29.0832 63.3435 29.532 63.5294 30 63.5294ZM0 109.412C0 103.565 4.74773 98.8238 10.5945 98.8238H109.406C115.254 98.8238 120 103.569 120 109.412C120 115.259 115.252 120 109.406 120H10.5945C4.74609 120 0 115.254 0 109.412ZM10.5881 112.941C12.5374 112.941 14.1176 111.361 14.1176 109.412C14.1176 107.462 12.5374 105.882 10.5881 105.882C8.63883 105.882 7.05867 107.462 7.05867 109.412C7.05891 111.361 8.63906 112.941 10.5881 112.941ZM109.412 112.941C111.361 112.941 112.941 111.361 112.941 109.412C112.941 107.462 111.361 105.882 109.412 105.882C107.463 105.882 105.882 107.462 105.882 109.412C105.882 111.361 107.463 112.941 109.412 112.941ZM84.7059 112.941C86.6552 112.941 88.2354 111.361 88.2354 109.412C88.2354 107.462 86.6552 105.882 84.7059 105.882C82.7566 105.882 81.1765 107.462 81.1765 109.412C81.1765 111.361 82.7566 112.941 84.7059 112.941ZM35.2941 112.941C37.2434 112.941 38.8235 111.361 38.8235 109.412C38.8235 107.462 37.2434 105.882 35.2941 105.882C33.3448 105.882 31.7646 107.462 31.7646 109.412C31.7646 111.361 33.3448 112.941 35.2941 112.941ZM60 112.941C61.9493 112.941 63.5294 111.361 63.5294 109.412C63.5294 107.462 61.9493 105.882 60 105.882C58.0507 105.882 56.4705 107.462 56.4705 109.412C56.4705 111.361 58.0507 112.941 60 112.941ZM74.7232 25.3113C76.5745 23.46 78.8121 22.2305 81.1765 21.6223V1.76461C81.1765 1.29662 81.3625 0.847826 81.6934 0.516911C82.0243 0.185996 82.4731 6.21452e-05 82.9411 0L86.4706 0C86.9385 6.21452e-05 87.3873 0.185996 87.7182 0.516911C88.0492 0.847826 88.2351 1.29662 88.2352 1.76461V21.6223C90.5995 22.2302 92.8371 23.46 94.6884 25.3113C99.758 30.3809 100.166 38.3468 95.9126 43.8825C95.7705 44.0673 95.5906 44.2197 95.385 44.3295C95.1793 44.4393 94.9526 44.504 94.7199 44.5191C94.4873 44.5343 94.2541 44.4997 94.0359 44.4175C93.8177 44.3354 93.6196 44.2076 93.4547 44.0428L90.8041 41.3923C90.5105 41.0986 90.3298 40.7108 90.2939 40.2971C90.258 39.8833 90.3691 39.4702 90.6077 39.1303C90.7687 38.9009 90.8941 38.6993 90.9837 38.5254C92.3515 35.8697 91.9226 32.528 89.6972 30.3023C86.9405 27.5456 82.4712 27.5456 79.7144 30.3023C77.4509 32.5659 77.0461 35.9841 78.4997 38.6609C78.5749 38.7994 78.675 38.9576 78.7995 39.135C79.038 39.4749 79.1491 39.888 79.1132 40.3016C79.0773 40.7153 78.8966 41.1031 78.603 41.3967L76.0594 43.9406C75.8813 44.1187 75.6671 44.2566 75.4312 44.3451C75.1954 44.4335 74.9433 44.4705 74.692 44.4534C74.4407 44.4364 74.196 44.3657 73.9742 44.2462C73.7525 44.1267 73.5589 43.9612 73.4065 43.7606C73.392 43.7414 73.3777 43.7227 73.3641 43.7041C69.255 38.1766 69.7078 30.3267 74.7232 25.3113Z" fill="white"/>
</g>
<defs>
<clipPath id="clip0_345_5423">
<rect width="120" height="120" fill="white"/>
</clipPath>
</defs>
</svg>
