<svg width="148" height="88" viewBox="0 0 148 88" fill="none" xmlns="http://www.w3.org/2000/svg">
<path fill-rule="evenodd" clip-rule="evenodd" d="M105.508 1.26463C118.339 4.24198 123.248 11.7452 129.402 22.0725H105.508V1.26463ZM30.5186 22.9397C33.0312 22.9397 34.8546 24.1523 34.8546 26.9866C34.8546 29.3771 32.9205 31.3159 30.5311 31.3225H4.33594C1.94105 31.3225 0 33.2647 0 35.6584C0 38.0533 1.94105 39.9944 4.33594 39.9944H43.3594C45.7768 39.9944 47.7124 41.934 47.7124 44.3303C47.7124 46.7252 45.7713 48.6663 43.3764 48.6663H4.33594C1.94105 48.6663 0 50.6073 0 53.0022C0 55.3971 1.94105 57.3381 4.33594 57.3381H13.875V70.3459C13.875 72.7408 15.8161 74.6819 18.2109 74.6819H26.9268C28.4805 82.3354 35.2431 87.9788 43.2148 87.9788C51.1866 87.9788 57.9492 82.3354 59.5029 74.6819H103.528C105.082 82.3354 111.845 87.9788 119.816 87.9788C127.788 87.9788 134.551 82.3354 136.104 74.6819H143.664C146.059 74.6819 148 72.7408 148 70.3459V44.3303C148 31.6081 134.581 30.7635 134.569 30.7444H101.172C98.777 30.7444 96.8359 28.8033 96.8359 26.4084V0.392822H18.2109C15.8161 0.392822 13.875 2.33388 13.875 4.72876V14.2678H8.67188C6.27699 14.2678 4.33594 16.2089 4.33594 18.6038C4.33594 20.9986 6.27699 22.9397 8.67188 22.9397H30.5186ZM125.437 65.7368C128.541 68.8408 128.541 73.8757 125.437 76.9796C120.444 81.9729 111.867 78.4206 111.867 71.3577C111.867 64.2959 120.444 60.7436 125.437 65.7368ZM48.8357 65.7368C51.9399 68.8408 51.9399 73.8757 48.8357 76.9796C43.8427 81.9729 35.2656 78.4206 35.2656 71.3577C35.2656 64.2959 43.8427 60.7436 48.8357 65.7368Z" fill="white"/>
</svg>
