<svg width="120" height="120" viewBox="0 0 120 120" fill="none" xmlns="http://www.w3.org/2000/svg">
<path d="M60.0031 94.2521C65.9203 94.2521 70.7172 89.4552 70.7172 83.538C70.7172 77.6208 65.9203 72.824 60.0031 72.824C54.0859 72.824 49.2891 77.6208 49.2891 83.538C49.2891 89.4552 54.0859 94.2521 60.0031 94.2521Z" fill="white"/>
<path d="M94.287 89.9666C94.8553 89.9666 95.4003 89.7408 95.8022 89.339C96.204 88.9371 96.4298 88.3921 96.4298 87.8238V79.2525C96.4298 78.6842 96.204 78.1392 95.8022 77.7373C95.4003 77.3355 94.8553 77.1097 94.287 77.1097H86.5086C86.053 77.1123 85.6087 76.9677 85.2419 76.6974C84.8751 76.4272 84.6054 76.0457 84.4729 75.6097C84.0416 74.3102 83.5189 73.0427 82.9086 71.817C82.7027 71.4149 82.6291 70.958 82.6984 70.5116C82.7677 70.0652 82.9762 69.6521 83.2943 69.3313L88.8014 63.8457C89.2028 63.4411 89.4281 62.8943 89.4281 62.3243C89.4281 61.7543 89.2028 61.2075 88.8014 60.8029L82.7372 54.7388C82.3326 54.3373 81.7858 54.112 81.2158 54.112C80.6459 54.112 80.099 54.3373 79.6944 54.7388L74.2088 60.2458C73.8881 60.5639 73.475 60.7725 73.0285 60.8417C72.5821 60.911 72.1253 60.8374 71.7232 60.6315C70.4974 60.0213 69.23 59.4985 67.9304 59.0672C67.4945 58.9348 67.113 58.665 66.8427 58.2982C66.5724 57.9314 66.4278 57.4872 66.4304 57.0316V49.2532C66.4304 48.6849 66.2047 48.1398 65.8028 47.738C65.401 47.3361 64.8559 47.1104 64.2876 47.1104H55.7164C55.1481 47.1104 54.603 47.3361 54.2012 47.738C53.7993 48.1398 53.5736 48.6849 53.5736 49.2532V57.0316C53.5762 57.4872 53.4316 57.9314 53.1613 58.2982C52.891 58.665 52.5095 58.9348 52.0736 59.0672C50.774 59.4985 49.5066 60.0213 48.2808 60.6315C47.8787 60.8374 47.4219 60.911 46.9754 60.8417C46.529 60.7725 46.1159 60.5639 45.7952 60.2458L40.3096 54.7388C39.905 54.3373 39.3581 54.112 38.7882 54.112C38.2182 54.112 37.6714 54.3373 37.2668 54.7388L31.2026 60.8029C30.8012 61.2075 30.5759 61.7543 30.5759 62.3243C30.5759 62.8943 30.8012 63.4411 31.2026 63.8457L36.7096 69.3313C37.0277 69.6521 37.2363 70.0652 37.3056 70.5116C37.3749 70.958 37.3013 71.4149 37.0954 71.817C36.4851 73.0427 35.9624 74.3102 35.5311 75.6097C35.3986 76.0457 35.1289 76.4272 34.7621 76.6974C34.3953 76.9677 33.951 77.1123 33.4954 77.1097H25.717C25.1487 77.1097 24.6037 77.3355 24.2018 77.7373C23.8 78.1392 23.5742 78.6842 23.5742 79.2525V87.8238C23.5742 88.3921 23.8 88.9371 24.2018 89.339C24.6037 89.7408 25.1487 89.9666 25.717 89.9666H33.4954C33.951 89.964 34.3953 90.1086 34.7621 90.3788C35.1289 90.6491 35.3986 91.0306 35.5311 91.4665C35.9624 92.7661 36.4851 94.0335 37.0954 95.2593C37.3013 95.6614 37.3749 96.1183 37.3056 96.5647C37.2363 97.0111 37.0277 97.4242 36.7096 97.745L31.2026 103.231C30.8012 103.635 30.5759 104.182 30.5759 104.752C30.5759 105.322 30.8012 105.869 31.2026 106.273L37.2668 112.338C37.6714 112.739 38.2182 112.964 38.7882 112.964C39.3581 112.964 39.905 112.739 40.3096 112.338L45.7952 106.83C46.2005 106.431 46.7473 106.207 47.3166 106.209C47.653 106.203 47.9852 106.284 48.2808 106.445C49.5066 107.055 50.774 107.578 52.0736 108.009C52.5095 108.142 52.891 108.411 53.1613 108.778C53.4316 109.145 53.5762 109.589 53.5736 110.045V117.823C53.5736 118.391 53.7993 118.936 54.2012 119.338C54.603 119.74 55.1481 119.966 55.7164 119.966H64.2876C64.8559 119.966 65.401 119.74 65.8028 119.338C66.2047 118.936 66.4304 118.391 66.4304 117.823V110.045C66.4278 109.589 66.5724 109.145 66.8427 108.778C67.113 108.411 67.4945 108.142 67.9304 108.009C69.23 107.578 70.4974 107.055 71.7232 106.445C72.1253 106.239 72.5821 106.165 73.0285 106.235C73.475 106.304 73.8881 106.512 74.2088 106.83L79.6944 112.338C80.099 112.739 80.6459 112.964 81.2158 112.964C81.7858 112.964 82.3326 112.739 82.7372 112.338L88.8014 106.273C89.2028 105.869 89.4281 105.322 89.4281 104.752C89.4281 104.182 89.2028 103.635 88.8014 103.231L83.2943 97.745C82.9762 97.4242 82.7677 97.0111 82.6984 96.5647C82.6291 96.1183 82.7027 95.6614 82.9086 95.2593C83.5189 94.0335 84.0416 92.7661 84.4729 91.4665C84.6054 91.0306 84.8751 90.6491 85.2419 90.3788C85.6087 90.1086 86.053 89.964 86.5086 89.9666H94.287ZM60.002 98.5378C57.0353 98.5378 54.1353 97.6581 51.6686 96.0099C49.2019 94.3617 47.2794 92.0191 46.1441 89.2783C45.0088 86.5374 44.7118 83.5215 45.2905 80.6118C45.8693 77.7022 47.2979 75.0295 49.3956 72.9318C51.4934 70.834 54.1661 69.4054 57.0757 68.8267C59.9854 68.2479 63.0013 68.545 65.7421 69.6802C68.483 70.8155 70.8256 72.7381 72.4738 75.2048C74.122 77.6714 75.0017 80.5715 75.0017 83.5381C74.9971 87.5149 73.4154 91.3275 70.6034 94.1395C67.7914 96.9515 63.9788 98.5333 60.002 98.5378Z" fill="white"/>
<path d="M100.287 77.0244C105.363 76.621 110.13 74.4213 113.731 70.8201C117.331 67.2188 119.53 62.452 119.933 57.3754C120.336 52.2988 118.915 47.2449 115.927 43.1211C112.939 38.9973 108.579 36.0738 103.629 34.8753C102.679 37.3117 101.243 39.5293 99.4082 41.3933C97.5737 43.2572 95.3793 44.7286 92.9583 45.7179C92.6984 45.8175 92.4224 45.8683 92.144 45.8679C91.643 45.8742 91.1555 45.7047 90.7664 45.3889C90.3774 45.0731 90.1113 44.6309 90.0145 44.1392C89.9177 43.6475 89.9963 43.1375 90.2366 42.6977C90.4769 42.258 90.8637 41.9164 91.3298 41.7323C94.557 40.428 97.2301 38.0419 98.8911 34.983C100.552 31.924 101.097 28.3826 100.434 24.9657C99.7702 21.5487 97.9388 18.4689 95.2536 16.2541C92.5684 14.0392 89.1964 12.8272 85.7156 12.8258C84.2726 12.8385 82.838 13.0476 81.4514 13.4472C82.7514 15.7738 83.7659 18.2487 84.4728 20.8184C84.5802 21.3485 84.4832 21.8995 84.2013 22.361C83.9194 22.8225 83.4734 23.1604 82.9528 23.3068C82.4322 23.4532 81.8755 23.3974 81.3943 23.1505C80.9132 22.9036 80.5432 22.4839 80.3586 21.9756C78.5157 15.3365 74.4436 9.5341 68.8267 5.54359C63.2099 1.55308 56.3905 -0.38232 49.5148 0.0626539C42.6391 0.507628 36.1261 3.30585 31.0704 7.98705C26.0147 12.6683 22.7245 18.9471 21.7527 25.7683C22.3527 25.7255 22.9527 25.6826 23.5741 25.6826C27.4924 25.6855 31.3662 26.5131 34.9436 28.1117C38.521 29.7103 41.7218 32.044 44.3379 34.961C44.5265 35.1706 44.6719 35.4154 44.7658 35.6812C44.8598 35.947 44.9005 36.2288 44.8855 36.5103C44.8706 36.7919 44.8004 37.0677 44.6789 37.3221C44.5573 37.5765 44.3869 37.8045 44.1772 37.9931C43.9676 38.1816 43.7229 38.327 43.457 38.421C43.1912 38.5149 42.9095 38.5556 42.6279 38.5407C42.3463 38.5258 42.0705 38.4555 41.8161 38.334C41.5617 38.2125 41.3337 38.042 41.1451 37.8324C38.6355 35.0177 35.4868 32.8466 31.9639 31.5016C28.4409 30.1565 24.6465 29.6767 20.8996 30.1026C17.1527 30.5284 13.5628 31.8474 10.4315 33.9488C7.30026 36.0501 4.71915 38.8724 2.90511 42.1785C1.09107 45.4845 0.0971092 49.1777 0.00676353 52.9476C-0.0835821 56.7175 0.732326 60.4541 2.38592 63.8432C4.03951 67.2323 6.48247 70.175 9.50949 72.424C12.5365 74.6729 16.0591 76.1624 19.7813 76.7672C20.2758 75.6009 21.1019 74.6055 22.1571 73.9046C23.2123 73.2036 24.4501 72.8281 25.7169 72.8244H31.9739C32.1668 72.3102 32.3811 71.8173 32.5953 71.3031L28.1811 66.8674C26.9773 65.6621 26.3011 64.0282 26.3011 62.3247C26.3011 60.6211 26.9773 58.9873 28.1811 57.7819L34.2453 51.7178C35.4506 50.5139 37.0845 49.8378 38.7881 49.8378C40.4916 49.8378 42.1255 50.5139 43.3308 51.7178L47.7664 56.132C48.2807 55.9177 48.7736 55.7034 49.2878 55.5105V49.2535C49.2929 47.5502 49.9718 45.918 51.1763 44.7136C52.3808 43.5091 54.0129 42.8302 55.7163 42.8251H64.2875C65.9909 42.8302 67.623 43.5091 68.8275 44.7136C70.0319 45.918 70.7108 47.5502 70.7159 49.2535V55.5105C71.2302 55.7034 71.723 55.9177 72.2373 56.132L76.6729 51.7178C77.8783 50.5139 79.5122 49.8378 81.2157 49.8378C82.9192 49.8378 84.5531 50.5139 85.7585 51.7178L91.8226 57.7819C93.0264 58.9873 93.7026 60.6211 93.7026 62.3247C93.7026 64.0282 93.0264 65.6621 91.8226 66.8674L87.4084 71.3031C87.6227 71.8173 87.837 72.3102 88.0298 72.8244H94.2868C95.5965 72.8263 96.8742 73.23 97.9471 73.9811C99.0201 74.7321 99.8367 75.7944 100.287 77.0244Z" fill="white"/>
</svg>
