<svg width="561" height="574" viewBox="0 0 561 574" fill="none" xmlns="http://www.w3.org/2000/svg">
<g opacity="0.4">
<path d="M2.23849 300.582C15.0406 386.539 79.0513 406.764 145.288 346.089C211.525 285.413 254.941 166.31 242.139 80.3539C229.337 -5.60251 165.326 -25.8275 99.0894 35.4094C32.8523 96.6463 -10.5636 214.626 2.23849 300.582Z" fill="#ED7180"/>
<path d="M2.23849 300.582C15.0406 386.539 79.0513 406.764 145.288 346.089C211.525 285.413 254.941 166.31 242.139 80.3539C229.337 -5.60251 165.326 -25.8275 99.0894 35.4094C32.8523 96.6463 -10.5636 214.626 2.23849 300.582Z" fill="#ED7180"/>
</g>
<g opacity="0.4">
<path d="M103.717 352.357C116.519 438.314 180.53 458.539 246.767 397.864C313.004 337.188 356.42 218.085 343.618 132.129C330.816 46.1724 266.805 25.9474 200.568 87.1843C134.331 148.421 90.9149 266.401 103.717 352.357Z" fill="#ED7180"/>
<path d="M103.717 352.357C116.519 438.314 180.53 458.539 246.767 397.864C313.004 337.188 356.42 218.085 343.618 132.129C330.816 46.1724 266.805 25.9474 200.568 87.1843C134.331 148.421 90.9149 266.401 103.717 352.357Z" fill="#ED7180"/>
</g>
<g opacity="0.7">
<path d="M205.197 399.99C218 485.947 282.01 506.172 348.247 445.497C414.484 384.821 457.9 265.718 445.098 179.762C432.296 93.8055 368.285 73.5804 302.048 134.817C235.811 196.054 192.395 314.034 205.197 399.99Z" fill="#ED7180"/>
<path d="M205.197 399.99C218 485.947 282.01 506.172 348.247 445.497C414.484 384.821 457.9 265.718 445.098 179.762C432.296 93.8055 368.285 73.5804 302.048 134.817C235.811 196.054 192.395 314.034 205.197 399.99Z" fill="#ED7180"/>
</g>
<path fill-rule="evenodd" clip-rule="evenodd" d="M366.923 220.45C366.923 239.17 354.883 261.425 340.072 270.117C325.261 278.809 313.221 270.69 313.221 251.969C313.221 233.249 325.261 210.994 340.072 202.302C354.883 193.61 366.923 201.729 366.923 220.45ZM330.519 289.029L353.261 275.657C374.475 263.24 391.866 274.989 391.866 301.733V316.06L292.01 374.705V360.378C292.01 333.539 309.401 301.446 330.519 289.029Z" fill="url(#paint0_linear_349_2)"/>
<defs>
<linearGradient id="paint0_linear_349_2" x1="306.507" y1="331.36" x2="412.128" y2="240.236" gradientUnits="userSpaceOnUse">
<stop stop-color="white"/>
<stop offset="1" stop-color="white" stop-opacity="0"/>
</linearGradient>
</defs>
</svg>
