<svg width="236" height="236" viewBox="0 0 236 236" fill="none" xmlns="http://www.w3.org/2000/svg">
<path d="M23.5617 70.0625H14.75V26.7344C14.7535 23.557 16.0173 20.5108 18.2641 18.2641C20.5108 16.0173 23.557 14.7535 26.7344 14.75H70.0625V31.9568C70.0622 32.642 70.2528 33.3137 70.6129 33.8967C70.9731 34.4796 71.4885 34.9506 72.1014 35.257C72.7143 35.5633 73.4005 35.6928 74.0829 35.631C74.7653 35.5691 75.417 35.3183 75.9648 34.9068C77.3574 33.8631 79.013 33.2277 80.7463 33.0719C82.4796 32.916 84.222 33.2459 85.7784 34.0244C87.3348 34.8029 88.6438 35.9994 89.5585 37.4799C90.4733 38.9603 90.9579 40.6662 90.9579 42.4065C90.9579 44.1468 90.4733 45.8526 89.5585 47.3331C88.6438 48.8135 87.3348 50.01 85.7784 50.7886C84.222 51.5671 82.4796 51.8969 80.7463 51.7411C79.013 51.5852 77.3574 50.9499 75.9648 49.9062C75.417 49.4945 74.7652 49.2436 74.0828 49.1817C73.4003 49.1197 72.7141 49.2492 72.1011 49.5556C71.4881 49.8619 70.9726 50.333 70.6124 50.916C70.2522 51.499 70.0616 52.1709 70.062 52.8562V70.0625H56.026C56.3494 68.7868 56.5219 67.4775 56.54 66.1616C56.568 63.955 56.1596 61.7647 55.3383 59.7165C54.517 57.6683 53.299 55.8026 51.7544 54.2266C50.2097 52.6506 48.3688 51.3955 46.3375 50.5333C44.3062 49.6711 42.1245 49.2188 39.9178 49.2025C37.7112 49.1862 35.523 49.6061 33.4792 50.4382C31.4354 51.2703 29.5761 52.4981 28.0083 54.0511C26.4405 55.6041 25.1951 57.4516 24.3437 59.4874C23.4922 61.5233 23.0515 63.7073 23.0469 65.9141C23.0454 67.3129 23.2184 68.7065 23.5617 70.0625ZM95.875 83.2559C96.2936 85.403 97.4385 87.3405 99.1173 88.7429C100.796 90.1453 102.906 90.927 105.094 90.9568C107.578 90.954 109.96 89.9659 111.717 88.2091C113.474 86.4524 114.463 84.0705 114.466 81.5859C114.472 79.5582 113.815 77.5841 112.594 75.9653C112.182 75.4174 111.931 74.7657 111.869 74.0832C111.807 73.4007 111.937 72.7145 112.243 72.1015C112.549 71.4885 113.021 70.973 113.604 70.6129C114.187 70.2527 114.858 70.0621 115.544 70.0625H132.75V26.7344C132.746 23.557 131.483 20.5108 129.236 18.2641C126.989 16.0173 123.943 14.7535 120.766 14.75H77.4375V26.1734C78.7131 25.8501 80.0222 25.6776 81.338 25.6595C83.5556 25.6353 85.7561 26.0502 87.8128 26.8801C89.8694 27.7101 91.7415 28.9388 93.3213 30.4955C94.901 32.0521 96.1571 33.9059 97.0173 35.9501C97.8775 37.9943 98.3247 40.1885 98.3332 42.4062C98.3293 44.9577 97.7433 47.4747 96.6198 49.7655C95.4963 52.0563 93.865 54.0606 91.85 55.6258C89.835 57.191 87.4894 58.2758 84.9919 58.7976C82.4943 59.3195 79.9106 59.2646 77.4375 58.6372V70.0625H94.6457C95.3305 70.0625 96.0018 70.2532 96.5843 70.6132C97.1668 70.9733 97.6376 71.4884 97.9439 72.1009C98.2501 72.7134 98.3798 73.3991 98.3183 74.0812C98.2568 74.7632 98.0066 75.4146 97.5957 75.9625C96.8402 77.0037 96.299 78.1845 96.0036 79.4366C95.7082 80.6886 95.6645 81.9868 95.875 83.2559ZM123.393 128.009C122.472 128.332 121.476 128.375 120.531 128.131C119.078 127.851 117.609 127.312 116.16 127.67C115.228 127.905 114.352 128.322 113.581 128.897C112.811 129.471 112.161 130.192 111.67 131.018C111.178 131.845 110.855 132.76 110.718 133.711C110.582 134.663 110.634 135.632 110.873 136.563C111.112 137.494 111.532 138.369 112.11 139.137C112.687 139.905 113.411 140.552 114.239 141.04C115.068 141.527 115.984 141.847 116.936 141.98C117.888 142.113 118.857 142.056 119.787 141.813C122.286 141.154 123.564 138.237 126.01 137.912C126.906 137.784 127.819 137.989 128.574 138.489C129.33 138.989 129.875 139.748 130.108 140.624L133.657 154.053L168.621 144.529C170.968 143.889 172.967 142.346 174.178 140.236C175.39 138.126 175.716 135.622 175.085 133.273L165.913 98.5982L157.899 100.719C158.296 101.53 158.619 102.376 158.862 103.245C159.903 106.962 159.438 110.939 157.568 114.315C155.697 117.692 152.573 120.195 148.87 121.284C145.167 122.373 141.184 121.959 137.784 120.132C134.384 118.305 131.841 115.213 130.704 111.524C130.36 110.404 130.149 109.247 130.076 108.078L122.059 110.198L125.614 123.628C125.845 124.503 125.746 125.433 125.337 126.241C124.927 127.049 124.236 127.678 123.393 128.009ZM176.216 188.506C173.608 193.508 172.02 198.979 171.544 204.6C171.068 210.221 171.713 215.88 173.443 221.25H106.938C104.005 221.247 101.193 220.08 99.1189 218.006C97.045 215.932 95.8784 213.12 95.875 210.188V95.5427C98.603 97.3667 101.812 98.3376 105.094 98.3318C107.645 98.328 110.162 97.7422 112.453 96.6189C114.744 95.4956 116.748 93.8644 118.314 91.8495C119.879 89.8347 120.964 87.4892 121.486 84.9918C122.008 82.4943 121.953 79.9107 121.326 77.4375H136.438C137.415 77.4375 138.353 77.049 139.045 76.3575C139.736 75.6659 140.125 74.728 140.125 73.75V44.25H162.25C162.935 44.25 163.606 44.0593 164.189 43.6993C164.771 43.3393 165.242 42.8242 165.548 42.2117L168.216 36.875H180.688C183.62 36.8784 186.432 38.045 188.506 40.1189C190.58 42.1928 191.747 45.0046 191.75 47.9375V160.757L179.608 148.685C179.134 148.212 178.628 147.773 178.093 147.37C180.093 145.283 181.522 142.716 182.244 139.917C182.966 137.118 182.956 134.18 182.215 131.386L172.097 93.1467C171.847 92.2013 171.231 91.394 170.386 90.9025C169.54 90.4109 168.534 90.2752 167.589 90.5254L150.594 95.0237C149.931 95.1989 149.331 95.5555 148.859 96.0533C148.388 96.5511 148.065 97.1705 147.926 97.8419C147.787 98.5133 147.838 99.2101 148.073 99.854C148.308 100.498 148.719 101.064 149.258 101.487C153.86 105.105 152.215 112.774 146.591 114.264C140.955 115.757 135.768 109.885 137.96 104.466C138.217 103.831 138.293 103.138 138.177 102.463C138.062 101.788 137.762 101.158 137.309 100.644C136.856 100.131 136.269 99.753 135.614 99.554C134.959 99.3549 134.261 99.3422 133.6 99.5173L116.605 104.011C116.136 104.135 115.697 104.35 115.312 104.644C114.927 104.937 114.603 105.304 114.36 105.723C114.116 106.141 113.957 106.604 113.893 107.084C113.828 107.564 113.858 108.052 113.982 108.52L117.049 120.103C116.148 120.159 115.255 120.296 114.38 120.513C112.503 120.983 110.738 121.819 109.185 122.974C107.633 124.128 106.324 125.578 105.334 127.24C104.344 128.902 103.692 130.744 103.417 132.659C103.141 134.574 103.247 136.524 103.728 138.398C104.209 140.272 105.055 142.032 106.219 143.578C107.383 145.123 108.841 146.423 110.509 147.403C112.177 148.383 114.022 149.024 115.939 149.288C117.855 149.552 119.805 149.434 121.676 148.942C122.617 148.693 123.532 148.351 124.407 147.923L127.47 159.504C127.578 159.978 127.787 160.424 128.082 160.811C128.377 161.199 128.752 161.518 129.181 161.748C130.053 162.155 131.028 162.287 131.977 162.126L155.797 155.827C155.606 156.761 155.509 157.713 155.51 158.667V159.068C155.507 162.474 156.737 165.765 158.975 168.333L176.216 188.506ZM169.625 81.125C172.558 81.1284 175.37 82.295 177.444 84.3689C179.517 86.4428 180.684 89.2546 180.688 92.1875H188.062C188.057 87.2993 186.113 82.6128 182.656 79.1563C179.2 75.6998 174.513 73.7555 169.625 73.75V81.125ZM129.062 177V169.625C126.13 169.622 123.318 168.455 121.244 166.381C119.17 164.307 118.003 161.495 118 158.562H110.625C110.63 163.451 112.575 168.137 116.031 171.594C119.488 175.05 124.174 176.995 129.062 177ZM162.25 206.5H121.688V213.875H162.25V206.5ZM181.275 221.25H221.25V176.286C221.243 170.426 219.249 164.741 215.594 160.161L199.125 139.572V168.094L209.108 178.077L203.892 183.292L174.4 153.907C173.775 153.277 173.031 152.777 172.211 152.437C171.392 152.097 170.512 151.923 169.625 151.925C163.808 151.925 160.788 159.208 164.551 163.508L183.49 185.666C183.992 186.253 184.297 186.984 184.362 187.754C184.426 188.525 184.247 189.296 183.849 189.959C181.034 194.622 179.337 199.874 178.891 205.302C178.444 210.731 179.26 216.189 181.275 221.25ZM47.9375 147.5V154.875H66.375V147.5H47.9375ZM72.275 165.2L67.85 159.3L53.1 170.363L57.525 176.262L72.275 165.2ZM73.75 188.062H81.125V169.625H73.75V188.062ZM26.7344 132.75H69.9049V118.153C69.9049 117.468 69.7142 116.796 69.3541 116.214C68.9941 115.631 68.479 115.161 67.8665 114.854C67.2539 114.548 66.5682 114.418 65.8862 114.48C65.2042 114.541 64.5527 114.792 64.0049 115.203C62.6122 116.247 60.9564 116.882 59.2228 117.038C57.4893 117.194 55.7466 116.864 54.19 116.086C52.6333 115.307 51.3242 114.111 50.4092 112.63C49.4943 111.149 49.0096 109.443 49.0096 107.703C49.0096 105.962 49.4943 104.256 50.4092 102.775C51.3242 101.295 52.6333 100.098 54.19 99.3196C55.7466 98.541 57.4893 98.2112 59.2228 98.3672C60.9564 98.5232 62.6122 99.1588 64.0049 100.203C64.5527 100.614 65.2042 100.864 65.8862 100.925C66.5682 100.987 67.2539 100.857 67.8665 100.551C68.479 100.245 68.9941 99.7739 69.3541 99.1914C69.7142 98.6088 69.9049 97.9376 69.9049 97.2527V77.4375H50.2422C49.5569 77.4379 48.8851 77.2473 48.3021 76.8871C47.7191 76.527 47.248 76.0115 46.9416 75.3985C46.6353 74.7855 46.5058 74.0993 46.5677 73.4168C46.6296 72.7343 46.8805 72.0826 47.2922 71.5347C48.3358 70.1422 48.9711 68.4865 49.1269 66.7533C49.2827 65.02 48.9528 63.2776 48.1743 61.7212C47.3957 60.1649 46.1992 58.856 44.7188 57.9412C43.2384 57.0265 41.5325 56.542 39.7923 56.542C38.052 56.542 36.3462 57.0265 34.8657 57.9412C33.3853 58.856 32.1888 60.1649 31.4103 61.7212C30.6317 63.2776 30.3019 65.02 30.4577 66.7533C30.6135 68.4865 31.2487 70.1422 32.2924 71.5347C32.7039 72.0823 32.9547 72.7337 33.0168 73.4159C33.0788 74.098 32.9497 74.784 32.6438 75.3968C32.3379 76.0097 31.8673 76.5252 31.2848 76.8857C30.7024 77.2461 30.031 77.4372 29.346 77.4375H14.75V120.766C14.7535 123.943 16.0173 126.989 18.2641 129.236C20.5108 131.483 23.557 132.746 26.7344 132.75Z" fill="white"/>
</svg>
