<svg width="30" height="33" viewBox="0 0 30 33" fill="none" xmlns="http://www.w3.org/2000/svg">
<path d="M26.9546 0.769531H3.04181C1.72684 0.769531 0.650391 1.96267 0.650391 3.42021V24.6244C0.650391 26.0816 1.72684 27.2751 3.04181 27.2751H13.8027V29.9254H10.2157C8.89501 29.9254 7.8243 31.1122 7.8243 32.5761L22.1721 32.5749C22.1721 31.111 21.1014 29.9242 19.7807 29.9242H16.1938V27.2751H26.9546C28.2696 27.2751 29.346 26.0816 29.346 24.6244V3.42021C29.346 1.96267 28.2696 0.769531 26.9546 0.769531ZM26.9546 24.6244H3.04181V3.42021H26.9546V24.6244Z" fill="#1F40E5"/>
<path d="M22.172 15.3475V12.6969H19.6113C19.499 12.2155 19.3265 11.7638 19.1045 11.346L20.917 9.33748L19.225 7.46373L17.4125 9.47106C17.0355 9.22377 16.6277 9.03373 16.1937 8.9093V6.07104H13.8026V8.9093C13.3682 9.03373 12.9593 9.22377 12.5838 9.47106L10.7713 7.46373L9.08073 9.33748L10.8918 11.346C10.6687 11.7627 10.4969 12.2155 10.3849 12.6969H7.82422V15.3475H10.3849C10.4972 15.829 10.6687 16.2806 10.8918 16.6985L9.08073 18.707L10.7713 20.5823L12.5838 18.5734C12.9607 18.8211 13.3686 19.0115 13.8026 19.1356V21.9738H16.1937V19.1356C16.628 19.0111 17.0359 18.8211 17.4125 18.5734L19.225 20.5823L20.917 18.707L19.1045 16.6985C19.3276 16.2806 19.4994 15.8286 19.6113 15.3475H22.172ZM14.9981 16.6726C13.6774 16.6726 12.6067 15.4859 12.6067 14.022C12.6067 12.5582 13.6774 11.3714 14.9981 11.3714C16.3188 11.3714 17.3896 12.5582 17.3896 14.022C17.3896 15.4859 16.3188 16.6726 14.9981 16.6726Z" fill="#1F40E5"/>
</svg>
