<svg width="71" height="70" viewBox="0 0 71 70" fill="none" xmlns="http://www.w3.org/2000/svg">
<g clip-path="url(#clip0_345_79)">
<path d="M71 0H0V70H71V0Z" fill="url(#paint0_linear_345_79)"/>
<path d="M23.959 53.503V42H25.9237V53.503H23.959Z" fill="white"/>
<path d="M37.0039 53.503V42H38.9686V53.503H37.0039Z" fill="white"/>
<path d="M56.1484 53.503V42H58.1132V53.503H56.1484Z" fill="white"/>
<path d="M32.3196 13.3389H35.8765V35.1146H31.5933V23.2169L26.5092 32.0575H23.3712L18.2499 23.373V35.1146H14.0039V13.3389H17.5981L24.9914 26.3382L32.3196 13.3389Z" fill="white"/>
<path d="M46.5566 35.1146V17.2221H39.3867V13.3389H58.1214V17.2221H50.9423V35.1146H46.5566Z" fill="white"/>
<path d="M31.5095 45.415C29.2747 45.415 27.459 47.2511 27.459 49.5278C27.459 51.7954 29.2747 53.6406 31.5095 53.6406C33.7442 53.6406 35.56 51.8045 35.56 49.5278C35.56 47.2511 33.7442 45.415 31.5095 45.415ZM31.5095 51.9055C30.3642 51.9055 29.433 50.8406 29.433 49.5186C29.433 48.1967 30.3642 47.1318 31.5095 47.1318C32.6548 47.1318 33.5859 48.1967 33.5859 49.5186C33.5859 50.8406 32.6548 51.9055 31.5095 51.9055Z" fill="white"/>
<path d="M41.0642 45.415C38.8294 45.415 37.0137 47.2511 37.0137 49.5278C37.0137 51.7954 38.8294 53.6406 41.0642 53.6406C43.2989 53.6406 45.1146 51.8045 45.1146 49.5278C45.1146 47.2511 43.3082 45.415 41.0642 45.415ZM41.0642 51.9055C39.9189 51.9055 38.9877 50.8406 38.9877 49.5186C38.9877 48.1967 39.9189 47.1318 41.0642 47.1318C42.2095 47.1318 43.1406 48.1967 43.1406 49.5186C43.1406 50.8406 42.2095 51.9055 41.0642 51.9055Z" fill="white"/>
<path d="M54.3979 49.5186C54.3979 49.5002 54.3979 49.4818 54.3979 49.4635V49.4268C54.3513 47.1959 52.5542 45.4058 50.3474 45.4058C48.1126 45.4058 46.2969 47.2418 46.2969 49.5186C46.2969 51.7861 48.1126 53.6313 50.3474 53.6313C51.1109 53.6313 51.8186 53.4202 52.4331 53.0438V53.5028H54.3979V49.5736C54.3979 49.5553 54.3979 49.5369 54.3979 49.5186ZM50.3474 51.9054C49.2021 51.9054 48.2709 50.8405 48.2709 49.5186C48.2709 48.2058 49.2021 47.1317 50.3474 47.1317C51.4927 47.1317 52.4238 48.1966 52.4238 49.5186C52.4238 50.8405 51.4927 51.9054 50.3474 51.9054Z" fill="white"/>
<path d="M18.0544 45.415C15.8196 45.415 14.0039 47.2511 14.0039 49.5278C14.0039 50.1613 14.1436 50.758 14.395 51.2905C14.7395 52.0249 15.2889 52.64 15.9779 53.0531C15.9779 53.0531 15.9779 53.0531 15.9779 53.0439C16.5832 53.4111 17.2909 53.6314 18.0544 53.6314C18.8179 53.6314 19.5256 53.4111 20.1309 53.0439C20.8106 52.6308 21.3693 52.0157 21.7138 51.2813C21.9652 50.7488 22.1049 50.1521 22.1049 49.5186C22.1049 47.2511 20.2891 45.415 18.0544 45.415ZM19.4511 51.2813C19.0787 51.6668 18.5945 51.9055 18.0544 51.9055C17.5143 51.9055 17.0301 51.6668 16.6577 51.2813C16.2387 50.8498 15.9779 50.2164 15.9779 49.5186C15.9779 49.5186 15.9779 49.5186 15.9779 49.5095C15.9779 48.1967 16.9091 47.1318 18.0544 47.1318C19.1997 47.1318 20.1309 48.1967 20.1309 49.5095C20.1309 50.2163 19.8701 50.8406 19.4511 51.2813Z" fill="white"/>
<path d="M20.0944 55.5317C19.843 56.5324 19.0422 57.2668 18.0831 57.2668C17.1333 57.2668 16.3232 56.5324 16.0718 55.5317H14.0605C14.3771 57.5055 16.0532 59.0111 18.0831 59.0111C20.113 59.0111 21.7891 57.5055 22.1057 55.5317H20.0944Z" fill="white"/>
</g>
<defs>
<linearGradient id="paint0_linear_345_79" x1="63.8612" y1="-4.93017" x2="8.21603" y2="75.6746" gradientUnits="userSpaceOnUse">
<stop offset="0.0980392" stop-color="#88EDF2"/>
<stop offset="0.2775" stop-color="#65B4EE"/>
<stop offset="0.4929" stop-color="#4076E9"/>
<stop offset="0.651" stop-color="#284FE6"/>
<stop offset="0.7333" stop-color="#1F40E5"/>
</linearGradient>
<clipPath id="clip0_345_79">
<rect width="71" height="70" fill="white"/>
</clipPath>
</defs>
</svg>
