<svg width="829" height="876" viewBox="0 0 829 876" fill="none" xmlns="http://www.w3.org/2000/svg" xmlns:xlink="http://www.w3.org/1999/xlink">
<path fill-rule="evenodd" clip-rule="evenodd" d="M467.159 2.96016C359.203 14.2423 282.109 96.7486 202.431 170.505C117.661 248.974 0.453918 319.847 0.00128174 435.399C-0.451904 551.09 115.996 623.255 200.347 702.378C280.48 777.544 357.854 862.802 467.159 873.6C585.863 885.326 719.187 855.077 792.424 760.868C861.705 671.747 807.601 548.307 807.811 435.399C808.021 322.091 863.732 197.707 793.633 108.72C720.022 15.2741 585.427 -9.39961 467.159 2.96016Z" fill="url(#pattern0_345_24)"/>
<defs>
<pattern id="pattern0_345_24" patternContentUnits="objectBoundingBox" width="1" height="1">
<use xlink:href="#image0_345_24" transform="matrix(0.0025524 0 0 0.00241546 -0.993156 0)"/>
</pattern>
</defs>
</svg>
