<svg width="498" height="474" viewBox="0 0 498 474" fill="none" xmlns="http://www.w3.org/2000/svg">
<path d="M58.1123 390.8H171.632L161.312 432.08H115.904C103.52 432.08 95.2643 440.336 95.2643 452.72C95.2643 463.04 103.52 473.36 115.904 473.36H380.096C392.48 473.36 400.736 463.04 400.736 452.72C400.736 440.336 392.48 432.08 380.096 432.08H336.752L326.432 390.8H439.952C470.912 390.8 497.744 363.968 497.744 333.008V58.496C497.744 27.536 470.912 0.704012 439.952 0.704012H58.1123C27.1523 -1.35999 0.320312 25.472 0.320312 56.432V330.944C0.320312 363.968 25.0883 390.8 58.1123 390.8ZM41.6003 56.432C41.6003 48.176 49.8563 39.92 58.1123 39.92H437.888C446.144 39.92 454.4 48.176 454.4 56.432V266.96H41.6003V56.432Z" fill="url(#paint0_linear_0_1)"/>
<path d="M308.875 112.688H302.688V94.125C302.688 92.484 302.036 90.9102 300.875 89.7498C299.715 88.5894 298.141 87.9375 296.5 87.9375C294.859 87.9375 293.285 88.5894 292.125 89.7498C290.964 90.9102 290.312 92.484 290.312 94.125V112.688H277.938V81.75C277.938 80.109 277.286 78.5352 276.125 77.3748C274.965 76.2144 273.391 75.5625 271.75 75.5625C270.109 75.5625 268.535 76.2144 267.375 77.3748C266.214 78.5352 265.562 80.109 265.562 81.75V112.688H253.188V94.125C253.188 92.484 252.536 90.9102 251.375 89.7498C250.215 88.5894 248.641 87.9375 247 87.9375C245.359 87.9375 243.785 88.5894 242.625 89.7498C241.464 90.9102 240.812 92.484 240.812 94.125V112.688H228.438V81.75C228.438 80.109 227.786 78.5352 226.625 77.3748C225.465 76.2144 223.891 75.5625 222.25 75.5625C220.609 75.5625 219.035 76.2144 217.875 77.3748C216.714 78.5352 216.062 80.109 216.062 81.75V118.875C216.062 120.516 216.714 122.09 217.875 123.25C219.035 124.411 220.609 125.062 222.25 125.062H308.875C310.516 125.062 312.09 125.714 313.25 126.875C314.411 128.035 315.062 129.609 315.062 131.25V180.75C315.062 182.391 314.411 183.965 313.25 185.125C312.09 186.286 310.516 186.938 308.875 186.938H185.125C183.484 186.938 181.91 186.286 180.75 185.125C179.589 183.965 178.938 182.391 178.938 180.75V131.25C178.938 129.609 179.589 128.035 180.75 126.875C181.91 125.714 183.484 125.062 185.125 125.062H197.5C199.141 125.062 200.715 124.411 201.875 123.25C203.036 122.09 203.688 120.516 203.688 118.875V94.125C203.688 92.484 203.036 90.9102 201.875 89.7498C200.715 88.5894 199.141 87.9375 197.5 87.9375C195.859 87.9375 194.285 88.5894 193.125 89.7498C191.964 90.9102 191.312 92.484 191.312 94.125V112.688H185.125C180.203 112.692 175.485 114.65 172.005 118.13C168.525 121.61 166.567 126.328 166.562 131.25V180.75C166.562 185.673 168.518 190.395 171.999 193.876C175.48 197.357 180.202 199.312 185.125 199.312H191.312V217.875C191.312 219.516 191.964 221.09 193.125 222.25C194.285 223.411 195.859 224.062 197.5 224.062C199.141 224.062 200.715 223.411 201.875 222.25C203.036 221.09 203.688 219.516 203.688 217.875V199.312H216.062V230.25C216.062 231.891 216.714 233.465 217.875 234.625C219.035 235.786 220.609 236.438 222.25 236.438C223.891 236.438 225.465 235.786 226.625 234.625C227.786 233.465 228.438 231.891 228.438 230.25V199.312H240.812V217.875C240.812 219.516 241.464 221.09 242.625 222.25C243.785 223.411 245.359 224.062 247 224.062C248.641 224.062 250.215 223.411 251.375 222.25C252.536 221.09 253.188 219.516 253.188 217.875V199.312H265.562V230.25C265.562 231.891 266.214 233.465 267.375 234.625C268.535 235.786 270.109 236.438 271.75 236.438C273.391 236.438 274.965 235.786 276.125 234.625C277.286 233.465 277.938 231.891 277.938 230.25V199.312H290.312V217.875C290.312 219.516 290.964 221.09 292.125 222.25C293.285 223.411 294.859 224.062 296.5 224.062C298.141 224.062 299.715 223.411 300.875 222.25C302.036 221.09 302.688 219.516 302.688 217.875V199.312H308.875C313.798 199.312 318.52 197.357 322.001 193.876C325.482 190.395 327.438 185.673 327.438 180.75V131.25C327.433 126.328 325.475 121.61 321.995 118.13C318.515 114.65 313.797 112.692 308.875 112.688Z" fill="url(#paint1_linear_0_1)"/>
<path d="M191.312 143.625V168.375C191.312 170.016 191.964 171.59 193.125 172.75C194.285 173.911 195.859 174.562 197.5 174.562H296.5C298.141 174.562 299.715 173.911 300.875 172.75C302.036 171.59 302.688 170.016 302.688 168.375V143.625C302.688 141.984 302.036 140.41 300.875 139.25C299.715 138.089 298.141 137.438 296.5 137.438H197.5C195.859 137.438 194.285 138.089 193.125 139.25C191.964 140.41 191.312 141.984 191.312 143.625ZM203.688 149.812H290.312V162.188H203.688V149.812Z" fill="url(#paint2_linear_0_1)"/>
<defs>
<linearGradient id="paint0_linear_0_1" x1="447.73" y1="-32.7052" x2="76.9798" y2="524.395" gradientUnits="userSpaceOnUse">
<stop offset="0.0980392" stop-color="#88EDF2"/>
<stop offset="0.2775" stop-color="#65B4EE"/>
<stop offset="0.4929" stop-color="#4076E9"/>
<stop offset="0.651" stop-color="#284FE6"/>
<stop offset="0.7333" stop-color="#1F40E5"/>
</linearGradient>
<linearGradient id="paint1_linear_0_1" x1="311.262" y1="64.2319" x2="182.744" y2="247.774" gradientUnits="userSpaceOnUse">
<stop offset="0.0980392" stop-color="#88EDF2"/>
<stop offset="0.2775" stop-color="#65B4EE"/>
<stop offset="0.4929" stop-color="#4076E9"/>
<stop offset="0.651" stop-color="#284FE6"/>
<stop offset="0.7333" stop-color="#1F40E5"/>
</linearGradient>
<linearGradient id="paint2_linear_0_1" x1="291.489" y1="134.823" x2="277.517" y2="194.684" gradientUnits="userSpaceOnUse">
<stop offset="0.0980392" stop-color="#88EDF2"/>
<stop offset="0.2775" stop-color="#65B4EE"/>
<stop offset="0.4929" stop-color="#4076E9"/>
<stop offset="0.651" stop-color="#284FE6"/>
<stop offset="0.7333" stop-color="#1F40E5"/>
</linearGradient>
</defs>
</svg>
