<svg width="823" height="844" viewBox="0 0 823 844" fill="none" xmlns="http://www.w3.org/2000/svg" xmlns:xlink="http://www.w3.org/1999/xlink">
<g opacity="0.3">
<path fill-rule="evenodd" clip-rule="evenodd" d="M688.881 69.5428C603.191 2.93821 490.504 9.03752 382.006 7.04131C266.574 4.91749 132.993 -25.1381 52.7446 57.8388C-27.6007 140.916 6.49923 273.548 12.6302 388.976C18.4545 498.631 15.3078 613.651 86.6992 697.105C164.229 787.734 281.34 858.229 399.339 841.024C510.963 824.748 557.307 698.316 635.551 617.076C714.073 535.548 840.298 484.46 851.272 371.789C862.796 253.472 782.756 142.509 688.881 69.5428Z" fill="url(#pattern0_345_23)"/>
<path fill-rule="evenodd" clip-rule="evenodd" d="M688.881 69.5428C603.191 2.93821 490.504 9.03752 382.006 7.04131C266.574 4.91749 132.993 -25.1381 52.7446 57.8388C-27.6007 140.916 6.49923 273.548 12.6302 388.976C18.4545 498.631 15.3078 613.651 86.6992 697.105C164.229 787.734 281.34 858.229 399.339 841.024C510.963 824.748 557.307 698.316 635.551 617.076C714.073 535.548 840.298 484.46 851.272 371.789C862.796 253.472 782.756 142.509 688.881 69.5428Z" fill="url(#pattern1_345_23)"/>
</g>
<defs>
<pattern id="pattern0_345_23" patternContentUnits="objectBoundingBox" width="1" height="1">
<use xlink:href="#image0_345_23" transform="matrix(0.00114753 0 0 0.00108696 -0.291796 0)"/>
</pattern>
<pattern id="pattern1_345_23" patternContentUnits="objectBoundingBox" width="1" height="1">
<use xlink:href="#image1_345_23" transform="matrix(0.00255007 0 0 0.00241546 -0.991789 0)"/>
</pattern>
</defs>
</svg>
