<svg width="200" height="200" viewBox="0 0 200 200" fill="none" xmlns="http://www.w3.org/2000/svg">
<path fill-rule="evenodd" clip-rule="evenodd" d="M142.578 42.2497C159.918 46.2731 166.551 56.4125 174.867 70.3684H142.578V42.2497ZM41.2414 71.5403C44.6367 71.5403 47.1008 73.179 47.1008 77.009C47.1008 80.2395 44.4871 82.8594 41.2582 82.8684H5.85938C2.62305 82.8684 0 85.493 0 88.7278C0 91.9641 2.62305 94.5872 5.85938 94.5872H58.5938C61.8605 94.5872 64.4762 97.2083 64.4762 100.447C64.4762 103.683 61.8531 106.306 58.6168 106.306H5.85938C2.62305 106.306 0 108.929 0 112.165C0 115.402 2.62305 118.025 5.85938 118.025H18.75V135.603C18.75 138.839 21.373 141.462 24.6094 141.462H36.3875C38.4871 151.805 47.6258 159.431 58.3984 159.431C69.1711 159.431 78.3098 151.805 80.4094 141.462H139.903C142.003 151.805 151.141 159.431 161.914 159.431C172.687 159.431 181.825 151.805 183.925 141.462H194.141C197.377 141.462 200 138.839 200 135.603V100.447C200 83.2543 181.866 82.1129 181.85 82.0872H136.719C133.482 82.0872 130.859 79.4641 130.859 76.2278V41.0715H24.6094C21.373 41.0715 18.75 43.6946 18.75 46.9309V59.8215H11.7188C8.48242 59.8215 5.85938 62.4446 5.85938 65.6809C5.85938 68.9172 8.48242 71.5403 11.7188 71.5403H41.2414ZM169.51 129.374C173.705 133.569 173.705 140.373 169.51 144.567C162.762 151.315 151.172 146.515 151.172 136.97C151.172 127.427 162.762 122.627 169.51 129.374ZM65.9941 129.374C70.1891 133.569 70.1891 140.373 65.9941 144.567C59.2469 151.315 47.6562 146.515 47.6562 136.97C47.6562 127.427 59.2469 122.627 65.9941 129.374Z" fill="white"/>
</svg>
