<svg width="18" height="16" viewBox="0 0 18 16" fill="none" xmlns="http://www.w3.org/2000/svg">
<path fill-rule="evenodd" clip-rule="evenodd" d="M1.24335 6.83095C5.90767 4.79876 9.01798 3.45901 10.5742 2.81176C15.0175 0.963635 15.9409 0.642572 16.5426 0.631947C16.675 0.629635 16.9709 0.662447 17.1626 0.81801C17.447 1.04876 17.4486 1.54963 17.417 1.88113C17.1762 4.41113 16.1344 10.5507 15.6043 13.3843C15.38 14.5833 14.9384 14.9854 14.5109 15.0247C13.5817 15.1102 12.8762 14.4106 11.9762 13.8208C10.568 12.8976 9.77248 12.323 8.40554 11.4223C6.82585 10.3813 7.84992 9.80914 8.75017 8.87407C8.98579 8.62939 13.0796 4.9057 13.1589 4.56789C13.1688 4.52564 13.178 4.36814 13.0844 4.28501C12.9909 4.20188 12.8528 4.23026 12.7532 4.25288C12.6119 4.28495 10.3623 5.77188 6.00429 8.71363C5.36573 9.15213 4.78735 9.36576 4.26917 9.35457C3.69785 9.34226 2.59898 9.03157 1.78204 8.76601C0.780041 8.44032 -0.016334 8.26807 0.053041 7.71495C0.089166 7.42676 0.485916 7.13213 1.24335 6.83095Z" fill="#ED7180"/>
</svg>
