<svg width="22" height="13" viewBox="0 0 22 13" fill="none" xmlns="http://www.w3.org/2000/svg">
    <path d="M3.66727 0H1.33339C0.666578 0 0.533203 0.313875 0.533203 0.659875C0.533203 1.27794 1.32445 4.34319 4.21733 8.39725C6.14595 11.1659 8.86314 12.6666 11.3357 12.6666C12.8193 12.6666 13.0028 12.3333 13.0028 11.7591V9.66662C13.0028 8.99994 13.1433 8.86687 13.613 8.86687C13.9592 8.86687 14.5526 9.03994 15.9373 10.3748C17.5197 11.9569 17.7806 12.6666 18.6706 12.6666H21.0045C21.6714 12.6666 22.0048 12.3333 21.8125 11.6755C21.602 11.0199 20.8465 10.0686 19.8439 8.94113C19.2999 8.29838 18.484 7.60625 18.2367 7.26012C17.7666 6.65586 18.4596 5.91139 18.8881 5.277C19.7463 4.00653 21.1716 1.79864 21.3769 0.85775C21.5252 0.363312 21.3769 0 20.6711 0H18.3372C18.1382 0 17.9751 0.0353121 17.8407 0.0953043C17.3622 0.308861 17.2243 0.902827 17.0006 1.37669C16.5389 2.35487 15.6141 4.13424 14.4537 5.43087C13.9097 5.97469 13.6625 6.14775 13.3657 6.14775C13.2174 6.14775 13.0026 5.97469 13.0026 5.48038V0.85775C13.0026 0.264437 12.8305 0 12.3358 0H8.66833C8.29751 0 8.07445 0.275312 8.07445 0.536312C8.07445 1.09869 8.91514 1.22844 9.00177 2.8105V6.24663C9.00177 6.99994 8.86564 7.13656 8.56895 7.13656C7.77777 7.13656 5.85314 4.23137 4.7117 0.907063C4.48814 0.261 4.26377 0 3.66727 0Z" fill="#ED7180"/>
    <text x="2" y="10" font-family="Arial" font-size="10" fill="#ED7180">VK</text>
</svg>
