<svg width="16" height="15" viewBox="0 0 16 15" fill="none" xmlns="http://www.w3.org/2000/svg">
<path fill-rule="evenodd" clip-rule="evenodd" d="M9.65086 10.0201C10.6141 11.0569 10.6141 12.7387 9.65086 13.7755C8.68758 14.8124 7.12519 14.8124 6.16191 13.7755C5.19863 12.7387 5.19863 11.0569 6.16191 10.0201C7.12519 8.98322 8.68758 8.98322 9.65086 10.0201Z" fill="black"/>
<path fill-rule="evenodd" clip-rule="evenodd" d="M12.4321 6.33708C11.2054 5.17869 9.62781 4.52938 7.9881 4.50858C6.35145 4.48777 4.76158 5.09329 3.51146 6.21446C3.47789 6.24402 3.44634 6.27573 3.41684 6.30748C3.15848 6.58558 3.11983 6.86371 3.3131 7.07064L3.90712 7.71111C4.22245 8.04943 4.47876 7.80198 4.60184 7.68264C4.61812 7.66731 4.63236 7.65307 4.64661 7.63994C6.5579 5.94286 9.31753 5.96148 11.2105 7.68264L11.2278 7.69908C11.3387 7.8009 11.5971 8.03963 11.8859 7.72868L12.5105 7.05641C12.6183 6.94035 12.6712 6.82429 12.6661 6.71151C12.66 6.54509 12.539 6.4345 12.4576 6.36114C12.4485 6.35238 12.4403 6.34475 12.4321 6.33708Z" fill="black"/>
<path fill-rule="evenodd" clip-rule="evenodd" d="M8.0236 0.000650816C5.28025 -0.030006 2.64268 1.02332 0.596097 2.96675C0.582873 2.97879 0.567585 2.99301 0.552327 3.00725C0.50452 3.05104 0.450608 3.10137 0.398731 3.1572C0.159692 3.4145 0.127172 3.64116 0.302128 3.82948L0.961276 4.53898C1.24812 4.84774 1.60512 4.51053 1.79736 4.32988L1.83399 4.29593C5.38805 1.00251 10.6876 1.07696 14.1613 4.47001C14.2691 4.57512 14.556 4.85543 14.8245 4.56638L15.5213 3.81638C15.5925 3.73974 15.6281 3.65319 15.6261 3.55903C15.623 3.38604 15.4968 3.24047 15.4022 3.14631C13.3913 1.14924 10.771 0.0324025 8.0236 0.000650816Z" fill="black"/>
</svg>
